<svg width="454" height="349" viewBox="0 0 454 349" fill="none" xmlns="http://www.w3.org/2000/svg" >
<g filter="url(#filter0_d_802_242)">
<path d="M286.769 174.369C289.799 172.755 292.884 171.797 295.818 170.463C298.707 169.497 308.726 169.706 311.321 167.725C313.718 165.896 317.119 164.597 320.66 163.21C322.254 162.586 327.883 160.258 328.975 160.986C329.426 161.287 330.562 161.683 331.056 162.343C332.381 164.118 335.026 164.399 337.841 156.3C338.507 152.181 344.452 150.651 347.717 149.111C350.061 145.731 339.78 146.669 339.78 146.818C337.632 147.379 332.624 149.454 329.765 151.452C327.722 152.724 320.024 155.036 315.617 155.148C311.097 155.263 307.067 156.832 299.857 157.33C295.798 156.961 293.143 157.01 289.556 158.591C286.196 159.118 280.739 156.461 274.099 159.33C277.265 155.258 275.741 146.577 276.582 140.899C276.882 138.88 275.007 136.032 275.589 134.068C276.074 132.432 277.631 130.021 276.316 127.571C274.653 124.475 270.738 121.1 268.285 119.368C272.811 116.834 278.069 107.445 282.014 105.392C291.325 99.8869 290.877 96.1887 295.773 90.3396C296.119 89.926 297.978 87.6313 298.181 88.0438C298.69 89.0761 299.931 89.0855 303.234 90.9607C305.184 92.7368 306.378 93.5187 306.81 93.0461C307.194 91.2097 304.675 89.562 304.186 88.4563C305.067 87.5077 306.324 86.4583 307.31 86.6398C312.603 87.6141 313.209 88.3508 314.069 86.6003C313.77 86.2296 311.951 85.9497 310.108 85.2509C309.438 84.9965 308.231 85.5498 307.752 85.5421C308.83 85.9976 316.015 83.6172 314.375 81.5068C314.041 81.0767 308.049 84.3886 306.726 83.9829C312.199 86.3098 314.241 80.936 313.093 80.5445C312.297 80.2047 307.67 82.6677 305.079 82.4132C305.568 80.6087 308.281 78.8896 306.317 77.146C306.241 76.8873 304.974 79.822 301.856 81.7603C300.353 82.6944 299.262 81.7024 297.862 82.05C295.704 82.6393 294.411 83.7907 292.988 85.1018C287.862 89.1974 285.337 91.5637 280.478 94.3455C276.769 97.0668 269.489 105.527 266.239 108.704C264.873 110.039 262.292 109.024 257.405 113.369C257.358 113.411 255.734 112.538 255.896 112.325C256.509 111.52 258.069 110.002 257.737 109.038C256.652 105.887 257.195 105.413 256.742 103.652C256.523 102.799 256.178 102.594 254.979 101.695C254.595 101.407 254.465 100.214 254.179 99.7935C253.046 98.1319 251.906 96.6598 250.258 95.4474C247.731 93.5892 240.751 94.975 240.458 95.4371C239.026 94.0755 235.375 92.8734 232.28 95.883C230.339 97.7703 230.388 103.49 233.257 105.817C236.679 108.043 236.32 108.695 237.881 110.331C241.492 113.504 241.771 112.865 243.505 114.913C240.221 114.73 233.658 116.207 230.512 116.234C224.144 115.459 216.68 114.717 210.902 113.103C208.58 112.454 205.523 113.34 202.674 113.109C199.753 113.224 193.011 111.96 189.296 113.057C186.37 113.555 184.987 117.819 183.64 118.738C183.169 119.617 176.239 120.936 177.285 121.719C177.945 123.392 181.56 121.084 181.268 121.026C181.052 121.358 176.167 122.037 173.92 123.056C172.566 123.67 177.34 126.911 181.951 121.206C179.502 124.25 174.816 125.88 174.197 126.846C175.748 130.473 185.102 122.654 183.421 122.507C183.907 121.92 178.067 128.821 178.196 129.098C179.352 131.574 185.252 123.553 185.445 123.02C185.577 122.658 186.976 122.642 187.653 122.395C187.653 127.265 189.68 128.387 190.197 127.577C190.996 126.324 189.889 125.01 190.394 123.194C190.814 121.681 191.08 120.257 191.869 118.785C197.523 121.57 209.944 123.09 220.275 124.303C235.871 129.38 229.399 127.496 237.408 128.551C241.257 133.736 246.627 136.034 251.598 139.381C251.834 140.374 254.234 147.499 255.218 148.574C255.795 149.205 255.77 150.872 255.197 151.681C249.422 154.647 248.086 159.15 247.476 160.986C243.502 161.964 248.061 161.736 228.28 165.088C224.344 163.158 217.484 162.518 208.69 166.262C207.828 166.658 208.081 166.192 202.506 168.355C201.387 168.601 200.248 168.989 198.937 169.06C195.363 169.252 191.689 167.954 189.215 169.411C186.746 170.866 185.945 171.416 184.74 173.679C184.485 173.609 182.923 176.618 183.393 178.23C183.674 179.192 185.585 179.215 187.063 179.296C189.891 179.452 190.014 178.058 193.638 177.308C195.899 176.84 200.209 175.925 202.945 174.6C210.135 173.672 217.193 174.951 222.334 174.64C224.616 174.753 225.784 175.39 227.149 175.615C232.947 176.572 236.257 176.626 238.035 176.791C241.556 177.117 241.604 177.306 244.882 177.824C247.873 178.297 255.161 177.777 256.244 177.982C263.177 184.095 277.502 180.005 286.762 174.371L286.769 174.369Z" fill="black"/>
<path d="M240.7 0.852022C240.457 0.810762 240.209 0.818973 239.97 0.876088C239.758 0.842745 239.542 0.846878 239.331 0.888371C239.331 0.892478 239.331 0.896547 239.331 0.900655C239.108 0.997398 238.907 1.13777 238.739 1.3134C238.57 1.48904 238.439 1.69639 238.352 1.92344L205.463 90.0797L107.666 95.6108C107.294 95.6318 106.937 95.7661 106.644 95.9955C106.35 96.2249 106.134 96.5384 106.024 96.8942C105.914 97.2499 105.915 97.6307 106.028 97.9856C106.141 98.3405 106.359 98.6525 106.654 98.8797L182.853 157.524L156.45 244.97C156.342 245.327 156.346 245.709 156.462 246.063C156.578 246.418 156.799 246.729 157.097 246.954C157.395 247.179 157.754 247.307 158.127 247.322C158.5 247.336 158.869 247.237 159.183 247.036L241.338 194.456L323.164 243.947C323.485 244.141 323.858 244.231 324.232 244.206C324.606 244.181 324.964 244.041 325.256 243.806C325.548 243.571 325.76 243.251 325.864 242.891C325.968 242.531 325.959 242.148 325.837 241.793L303.737 177.715C303.659 177.488 303.537 177.279 303.378 177.099C303.219 176.919 303.026 176.773 302.81 176.668C302.594 176.563 302.359 176.501 302.12 176.487C301.88 176.472 301.64 176.505 301.413 176.583C301.186 176.662 300.977 176.784 300.797 176.943C300.617 177.102 300.471 177.295 300.366 177.51C300.26 177.726 300.199 177.96 300.184 178.2C300.17 178.439 300.203 178.679 300.281 178.906L320.744 238.219L242.253 190.746C241.962 190.57 241.626 190.478 241.285 190.482C240.944 190.487 240.61 190.586 240.323 190.77L161.375 241.296L186.718 157.375C186.825 157.021 186.822 156.642 186.709 156.29C186.595 155.937 186.377 155.628 186.084 155.402L112.772 98.98L206.86 93.6575C207.214 93.6378 207.555 93.5154 207.841 93.3053C208.126 93.0951 208.345 92.8064 208.469 92.4742L240.19 7.44248L275.588 88.9847C275.781 89.428 276.142 89.7765 276.592 89.954C277.042 90.1315 277.544 90.1233 277.988 89.9313C278.433 89.7391 278.782 89.3784 278.961 88.9287C279.139 88.479 279.132 87.9769 278.94 87.5328L241.74 1.8352V1.83107C241.548 1.40111 241.197 1.06197 240.76 0.884486C240.749 0.877524 240.738 0.870658 240.727 0.86393C240.721 0.859777 240.714 0.855708 240.707 0.851646L240.7 0.852022Z" fill="black"/>
<path d="M46.1377 325.813H60.0603V334.886C58.2455 335.283 56.3096 335.581 54.2527 335.779C52.1959 335.968 50.0095 336.063 47.6934 336.063C43.6661 336.063 40.2696 335.666 37.504 334.873C34.7558 334.071 32.6731 332.912 31.2557 331.398C29.8384 329.883 29.1298 328.062 29.1298 325.934C29.1298 323.951 29.8989 322.188 31.4372 320.647C32.9929 319.105 35.2139 317.897 38.1004 317.023C40.9869 316.148 44.4437 315.711 48.471 315.711C50.5451 315.711 52.4983 315.81 54.3305 316.008C56.1799 316.207 57.9343 316.504 59.5936 316.901L58.5307 318.145C56.8887 317.748 55.2122 317.451 53.501 317.253C51.8071 317.054 50.0871 316.955 48.3414 316.955C44.919 316.955 41.9721 317.338 39.5004 318.105C37.046 318.862 35.1621 319.917 33.8485 321.269C32.5521 322.612 31.9037 324.163 31.9037 325.921C31.9037 327.913 32.5348 329.567 33.7966 330.884C35.0583 332.2 36.8991 333.187 39.3189 333.845C41.756 334.503 44.7118 334.832 48.186 334.832C50.0873 334.832 51.7897 334.76 53.2934 334.616C54.8145 334.472 56.1885 334.282 57.4157 334.048V327.084H46.1377V325.813ZM81.7383 326.813L92.809 316.022H95.7389L83.1125 328.152V335.792H80.4421V328.26L67.7119 316.022H70.6676L81.7383 326.813ZM120.969 335.792L107.046 317.537H106.916C106.951 317.87 106.977 318.222 106.994 318.591C107.029 318.952 107.055 319.331 107.072 319.727C107.09 320.124 107.099 320.539 107.099 320.971V335.792H104.558V316.022H108.603L122.033 333.629H122.188L135.722 316.022H139.663V335.792H137.044V320.809C137.044 320.458 137.053 320.097 137.071 319.727C137.089 319.358 137.106 318.993 137.123 318.632C137.158 318.262 137.192 317.906 137.227 317.564H137.072L123.097 335.792H120.969ZM181.459 335.792H178.737L156.336 318.307H156.207C156.241 318.794 156.267 319.29 156.285 319.795C156.319 320.291 156.345 320.805 156.362 321.336C156.397 321.859 156.414 322.4 156.414 322.959V335.792H153.873V316.022H156.621L178.944 333.453H179.074C179.056 333.056 179.03 332.597 178.996 332.074C178.978 331.551 178.952 331.014 178.918 330.464C178.9 329.915 178.891 329.396 178.891 328.909V316.022H181.458L181.459 335.792ZM219.367 335.792L214.208 328.801H198.289L193.026 335.792H190.303L205.211 315.954H207.648L222.167 335.792H219.367ZM213.352 327.544L208.115 320.133C207.977 319.944 207.804 319.7 207.597 319.403C207.406 319.105 207.199 318.79 206.974 318.456C206.767 318.123 206.559 317.807 206.352 317.51C206.179 317.825 205.989 318.141 205.782 318.456C205.574 318.772 205.375 319.078 205.185 319.376C204.995 319.664 204.814 319.926 204.641 320.16L199.196 327.544H213.352ZM251.883 330.694C251.883 331.875 251.312 332.867 250.171 333.669C249.031 334.463 247.484 335.062 245.531 335.468C243.577 335.865 241.365 336.063 238.893 336.063C237.355 336.063 235.955 336.022 234.693 335.941C233.449 335.869 232.316 335.77 231.297 335.644C230.294 335.518 229.378 335.373 228.549 335.211V333.818C229.897 334.089 231.452 334.328 233.215 334.535C234.996 334.733 236.931 334.832 239.023 334.832C240.993 334.832 242.739 334.684 244.26 334.386C245.799 334.089 247.008 333.638 247.89 333.034C248.771 332.43 249.212 331.668 249.212 330.748C249.212 329.937 248.84 329.274 248.097 328.761C247.371 328.238 246.274 327.791 244.805 327.422C243.336 327.043 241.486 326.66 239.256 326.272C237.701 325.993 236.283 325.7 235.004 325.393C233.743 325.078 232.662 324.717 231.763 324.312C230.865 323.897 230.173 323.401 229.689 322.824C229.223 322.238 228.989 321.548 228.989 320.755C228.989 319.664 229.516 318.749 230.571 318.01C231.642 317.262 233.086 316.698 234.901 316.32C236.733 315.932 238.79 315.738 241.071 315.738C242.886 315.738 244.606 315.828 246.231 316.009C247.873 316.18 249.454 316.441 250.975 316.793L250.042 317.996C248.521 317.654 247 317.401 245.479 317.239C243.958 317.077 242.454 316.996 240.967 316.996C239.187 316.996 237.597 317.135 236.197 317.415C234.814 317.685 233.717 318.096 232.904 318.645C232.092 319.195 231.686 319.89 231.686 320.728C231.686 321.593 232.057 322.292 232.8 322.824C233.561 323.356 234.633 323.798 236.015 324.149C237.415 324.501 239.066 324.843 240.967 325.177C243.214 325.574 245.15 325.993 246.775 326.435C248.4 326.867 249.653 327.417 250.534 328.084C251.433 328.752 251.883 329.622 251.883 330.694ZM273.353 335.792H270.657V317.28H258.368V316.022H285.643V317.28H273.353V335.792ZM294.772 335.792V316.022H297.442V335.792H294.772ZM343.518 325.88C343.518 327.575 343.059 329.112 342.143 330.492C341.227 331.871 339.853 333.02 338.021 333.94C336.206 334.85 333.925 335.463 331.176 335.779L339.291 340.498H335.532L328.272 336.022C327.996 336.022 327.711 336.027 327.417 336.036C327.14 336.054 326.855 336.064 326.561 336.064C323.727 336.064 321.246 335.816 319.12 335.32C316.994 334.824 315.223 334.125 313.805 333.224C312.405 332.313 311.351 331.236 310.642 329.992C309.934 328.739 309.579 327.359 309.579 325.854C309.579 323.852 310.228 322.09 311.524 320.566C312.837 319.043 314.765 317.853 317.305 316.996C319.863 316.14 323.018 315.711 326.769 315.711C330.364 315.711 333.406 316.122 335.895 316.942C338.401 317.753 340.294 318.921 341.573 320.445C342.869 321.959 343.518 323.771 343.518 325.88ZM312.379 325.866C312.379 327.633 312.889 329.193 313.909 330.545C314.929 331.889 316.493 332.939 318.602 333.696C320.711 334.453 323.372 334.832 326.587 334.832C329.837 334.832 332.507 334.458 334.599 333.71C336.69 332.961 338.237 331.916 339.24 330.572C340.242 329.229 340.743 327.665 340.743 325.88C340.743 323.058 339.559 320.867 337.191 319.308C334.841 317.748 331.366 316.968 326.769 316.968C323.537 316.968 320.849 317.342 318.705 318.091C316.579 318.839 314.989 319.88 313.935 321.214C312.898 322.549 312.379 324.099 312.379 325.866ZM383.603 316.022V328.814C383.603 330.356 383.033 331.668 381.892 332.749C380.752 333.822 379.109 334.643 376.966 335.211C374.84 335.779 372.291 336.063 369.318 336.063C364.807 336.063 361.341 335.427 358.921 334.156C356.501 332.876 355.291 331.077 355.291 328.76V316.022H357.936V328.76C357.936 330.744 358.921 332.254 360.891 333.29C362.879 334.318 365.731 334.832 369.447 334.832C371.884 334.832 373.959 334.607 375.67 334.156C377.381 333.696 378.686 333.029 379.585 332.154C380.484 331.271 380.933 330.203 380.933 328.95V316.022H383.603ZM418.063 335.792H397.348V316.022H418.063V317.279H400.018V324.771H417.052V326.029H400.018V334.534H418.063V335.792Z" fill="black" stroke="#F9F9F9" stroke-width="0.913861" stroke-miterlimit="3.5" stroke-linecap="square" stroke-linejoin="round"/>
<path d="M22.4637 305.82H4.87735V273.766H22.4637V279.335H11.3521V286.373H21.6909V291.942H11.3521V300.208H22.4637V305.82ZM36.9776 300.931C37.6739 300.931 38.3492 300.858 39.0037 300.712C39.672 300.566 40.3334 300.383 40.9878 300.164V305.141C40.3056 305.462 39.4562 305.725 38.4397 305.93C37.4372 306.149 36.3372 306.259 35.1397 306.259C33.7473 306.259 32.494 306.025 31.3801 305.557C30.28 305.075 29.4098 304.249 28.7692 303.08C28.1426 301.896 27.8293 300.252 27.8293 298.147V286.329H24.78V283.501L28.2889 281.265L30.1269 276.09H34.1998V281.309H40.7372V286.329H34.1998V298.147C34.1998 299.082 34.4504 299.784 34.9517 300.252C35.4669 300.705 36.1422 300.931 36.9776 300.931ZM65.7362 293.521C65.7362 295.567 65.4716 297.379 64.9424 298.958C64.4272 300.537 63.6684 301.874 62.6658 302.97C61.6772 304.052 60.4797 304.87 59.0733 305.426C57.6809 305.981 56.1075 306.259 54.3531 306.259C52.71 306.259 51.1992 305.981 49.8207 305.426C48.4561 304.87 47.2656 304.052 46.2491 302.97C45.2466 301.874 44.4668 300.537 43.9098 298.958C43.3668 297.379 43.0952 295.567 43.0952 293.521C43.0952 290.802 43.5548 288.5 44.4738 286.614C45.3928 284.729 46.7016 283.296 48.4004 282.317C50.0991 281.338 52.1252 280.848 54.4784 280.848C56.6645 280.848 58.5999 281.338 60.2848 282.317C61.9835 283.296 63.3134 284.729 64.2741 286.614C65.2488 288.5 65.7362 290.802 65.7362 293.521ZM49.5909 293.521C49.5909 295.128 49.758 296.48 50.0922 297.577C50.4264 298.673 50.9485 299.499 51.6586 300.054C52.3688 300.61 53.2948 300.887 54.4366 300.887C55.5645 300.887 56.4765 300.61 57.1727 300.054C57.8828 299.499 58.3981 298.673 58.7183 297.577C59.0525 296.48 59.2196 295.128 59.2196 293.521C59.2196 291.898 59.0525 290.553 58.7183 289.486C58.3981 288.405 57.8828 287.594 57.1727 287.053C56.4626 286.512 55.5366 286.242 54.3948 286.242C52.71 286.242 51.4847 286.848 50.7188 288.061C49.9669 289.275 49.5909 291.094 49.5909 293.521ZM76.1773 281.309V305.82H69.8068V281.309H76.1773ZM73.0025 271.705C73.9494 271.705 74.7639 271.939 75.4462 272.407C76.1285 272.86 76.4696 273.715 76.4696 274.972C76.4696 276.215 76.1285 277.077 75.4462 277.559C74.7639 278.027 73.9494 278.261 73.0025 278.261C72.0417 278.261 71.2202 278.027 70.5379 277.559C69.8696 277.077 69.5353 276.215 69.5353 274.972C69.5353 273.715 69.8696 272.86 70.5379 272.407C71.2202 271.939 72.0417 271.705 73.0025 271.705ZM88.0386 305.82H81.6682V271.705H88.0386V305.82ZM103.158 280.848C105.316 280.848 107.175 281.287 108.735 282.164C110.294 283.026 111.499 284.283 112.348 285.935C113.198 287.586 113.622 289.603 113.622 291.986V295.231H98.5632C98.6329 297.116 99.1689 298.6 100.171 299.682C101.188 300.749 102.594 301.282 104.391 301.282C105.88 301.282 107.245 301.121 108.484 300.8C109.724 300.478 110.998 299.996 112.307 299.353V304.527C111.151 305.126 109.939 305.565 108.672 305.842C107.419 306.12 105.894 306.259 104.098 306.259C101.759 306.259 99.6842 305.806 97.874 304.9C96.0778 303.993 94.6645 302.612 93.6341 300.756C92.6176 298.9 92.1093 296.561 92.1093 293.74C92.1093 290.875 92.5688 288.493 93.4878 286.592C94.4208 284.678 95.7157 283.245 97.3727 282.295C99.0297 281.33 100.958 280.848 103.158 280.848ZM103.2 285.606C101.961 285.606 100.93 286.022 100.109 286.855C99.3012 287.689 98.8347 288.997 98.7094 290.78H107.649C107.635 289.786 107.461 288.902 107.127 288.127C106.806 287.352 106.319 286.739 105.665 286.285C105.024 285.832 104.203 285.606 103.2 285.606ZM139.622 287.82H151.736V304.439C150.135 304.995 148.471 305.44 146.744 305.777C145.017 306.098 143.061 306.259 140.875 306.259C137.839 306.259 135.263 305.63 133.147 304.373C131.03 303.116 129.422 301.26 128.322 298.804C127.222 296.349 126.672 293.331 126.672 289.75C126.672 286.388 127.285 283.479 128.51 281.023C129.749 278.568 131.552 276.668 133.92 275.323C136.301 273.978 139.204 273.306 142.629 273.306C144.245 273.306 145.839 273.489 147.412 273.854C148.986 274.219 150.413 274.695 151.694 275.279L149.543 280.717C148.61 280.22 147.545 279.803 146.347 279.467C145.15 279.131 143.896 278.963 142.588 278.963C140.708 278.963 139.072 279.416 137.679 280.322C136.301 281.228 135.229 282.5 134.463 284.137C133.711 285.759 133.335 287.674 133.335 289.881C133.335 291.971 133.606 293.828 134.149 295.45C134.693 297.058 135.549 298.322 136.718 299.243C137.888 300.149 139.413 300.602 141.293 300.602C142.212 300.602 142.984 300.558 143.611 300.471C144.251 300.368 144.85 300.266 145.407 300.164V293.477H139.622V287.82ZM178.531 293.521C178.531 295.567 178.266 297.379 177.737 298.958C177.222 300.537 176.463 301.874 175.461 302.97C174.472 304.052 173.275 304.87 171.868 305.426C170.476 305.981 168.902 306.259 167.148 306.259C165.505 306.259 163.994 305.981 162.616 305.426C161.251 304.87 160.06 304.052 159.044 302.97C158.041 301.874 157.262 300.537 156.705 298.958C156.162 297.379 155.89 295.567 155.89 293.521C155.89 290.802 156.35 288.5 157.269 286.614C158.188 284.729 159.496 283.296 161.195 282.317C162.894 281.338 164.92 280.848 167.273 280.848C169.459 280.848 171.395 281.338 173.08 282.317C174.778 283.296 176.108 284.729 177.069 286.614C178.044 288.5 178.531 290.802 178.531 293.521ZM162.386 293.521C162.386 295.128 162.553 296.48 162.887 297.577C163.221 298.673 163.743 299.499 164.454 300.054C165.164 300.61 166.09 300.887 167.231 300.887C168.359 300.887 169.271 300.61 169.968 300.054C170.678 299.499 171.193 298.673 171.513 297.577C171.847 296.48 172.014 295.128 172.014 293.521C172.014 291.898 171.847 290.553 171.513 289.486C171.193 288.405 170.678 287.594 169.968 287.053C169.257 286.512 168.331 286.242 167.19 286.242C165.505 286.242 164.279 286.848 163.514 288.061C162.762 289.275 162.386 291.094 162.386 293.521ZM204.031 281.309V305.82H199.144L198.287 302.685H197.953C197.452 303.518 196.825 304.198 196.074 304.724C195.322 305.25 194.493 305.638 193.588 305.886C192.683 306.135 191.743 306.259 190.768 306.259C189.097 306.259 187.642 305.952 186.403 305.338C185.164 304.71 184.196 303.738 183.5 302.422C182.818 301.107 182.476 299.396 182.476 297.292V281.309H188.847V295.625C188.847 297.379 189.146 298.702 189.745 299.594C190.344 300.485 191.297 300.931 192.606 300.931C193.901 300.931 194.918 300.624 195.656 300.01C196.394 299.382 196.909 298.468 197.201 297.27C197.508 296.057 197.661 294.58 197.661 292.841V281.309H204.031ZM225.814 298.541C225.814 300.208 225.438 301.618 224.686 302.773C223.948 303.913 222.841 304.783 221.365 305.382C219.889 305.967 218.051 306.259 215.851 306.259C214.222 306.259 212.822 306.149 211.653 305.93C210.497 305.711 209.327 305.345 208.144 304.834V299.309C209.411 299.908 210.768 300.405 212.217 300.8C213.679 301.18 214.96 301.37 216.06 301.37C217.299 301.37 218.183 301.18 218.712 300.8C219.255 300.405 219.527 299.893 219.527 299.265C219.527 298.856 219.415 298.49 219.193 298.169C218.984 297.832 218.524 297.46 217.814 297.051C217.104 296.627 215.99 296.079 214.472 295.406C213.01 294.763 211.806 294.113 210.859 293.455C209.926 292.797 209.23 292.022 208.77 291.131C208.325 290.225 208.102 289.077 208.102 287.689C208.102 285.423 208.937 283.72 210.608 282.58C212.293 281.425 214.542 280.848 217.355 280.848C218.803 280.848 220.181 281.002 221.49 281.309C222.813 281.615 224.171 282.105 225.563 282.777L223.641 287.601C222.486 287.075 221.393 286.644 220.362 286.307C219.346 285.971 218.309 285.803 217.25 285.803C216.317 285.803 215.614 285.935 215.141 286.198C214.667 286.461 214.431 286.863 214.431 287.404C214.431 287.798 214.549 288.149 214.786 288.456C215.036 288.763 215.51 289.106 216.206 289.486C216.916 289.852 217.953 290.327 219.318 290.912C220.641 291.482 221.79 292.081 222.764 292.709C223.739 293.323 224.491 294.091 225.02 295.012C225.549 295.918 225.814 297.094 225.814 298.541ZM245.883 298.541C245.883 300.208 245.507 301.618 244.756 302.773C244.018 303.913 242.911 304.783 241.435 305.382C239.959 305.967 238.121 306.259 235.921 306.259C234.291 306.259 232.892 306.149 231.722 305.93C230.567 305.711 229.397 305.345 228.214 304.834V299.309C229.481 299.908 230.838 300.405 232.286 300.8C233.748 301.18 235.029 301.37 236.129 301.37C237.369 301.37 238.253 301.18 238.782 300.8C239.325 300.405 239.597 299.893 239.597 299.265C239.597 298.856 239.485 298.49 239.262 298.169C239.054 297.832 238.594 297.46 237.884 297.051C237.174 296.627 236.06 296.079 234.542 295.406C233.08 294.763 231.876 294.113 230.929 293.455C229.996 292.797 229.3 292.022 228.84 291.131C228.394 290.225 228.172 289.077 228.172 287.689C228.172 285.423 229.007 283.72 230.678 282.58C232.363 281.425 234.612 280.848 237.424 280.848C238.873 280.848 240.251 281.002 241.56 281.309C242.883 281.615 244.24 282.105 245.633 282.777L243.711 287.601C242.555 287.075 241.462 286.644 240.432 286.307C239.416 285.971 238.378 285.803 237.32 285.803C236.387 285.803 235.684 285.935 235.21 286.198C234.737 286.461 234.5 286.863 234.5 287.404C234.5 287.798 234.619 288.149 234.855 288.456C235.106 288.763 235.579 289.106 236.276 289.486C236.986 289.852 238.023 290.327 239.388 290.912C240.711 291.482 241.859 292.081 242.834 292.709C243.809 293.323 244.561 294.091 245.09 295.012C245.619 295.918 245.883 297.094 245.883 298.541ZM259.228 280.804C262.361 280.804 264.763 281.52 266.434 282.953C268.104 284.385 268.94 286.563 268.94 289.486V305.82H264.491L263.259 302.488H263.092C262.423 303.365 261.741 304.081 261.045 304.637C260.349 305.192 259.548 305.601 258.643 305.864C257.738 306.127 256.638 306.259 255.343 306.259C253.964 306.259 252.725 305.981 251.625 305.426C250.539 304.87 249.683 304.023 249.056 302.883C248.429 301.728 248.116 300.266 248.116 298.498C248.116 295.896 248.986 293.981 250.727 292.753C252.467 291.511 255.078 290.824 258.559 290.692L262.611 290.561V289.486C262.611 288.2 262.291 287.257 261.651 286.658C261.01 286.059 260.119 285.759 258.977 285.759C257.849 285.759 256.742 285.927 255.656 286.263C254.57 286.6 253.484 287.024 252.398 287.535L250.288 283.019C251.528 282.332 252.913 281.791 254.445 281.396C255.99 281.002 257.585 280.804 259.228 280.804ZM262.611 294.463L260.147 294.551C258.086 294.61 256.652 294.997 255.844 295.713C255.05 296.429 254.654 297.372 254.654 298.541C254.654 299.564 254.939 300.295 255.51 300.734C256.081 301.158 256.826 301.37 257.745 301.37C259.109 301.37 260.258 300.946 261.191 300.098C262.138 299.25 262.611 298.044 262.611 296.48V294.463ZM280.676 281.309V305.82H274.306V281.309H280.676ZM277.501 271.705C278.448 271.705 279.263 271.939 279.945 272.407C280.627 272.86 280.968 273.715 280.968 274.972C280.968 276.215 280.627 277.077 279.945 277.559C279.263 278.027 278.448 278.261 277.501 278.261C276.54 278.261 275.719 278.027 275.037 277.559C274.368 277.077 274.034 276.215 274.034 274.972C274.034 273.715 274.368 272.86 275.037 272.407C275.719 271.939 276.54 271.705 277.501 271.705ZM299.43 280.848C301.922 280.848 303.927 281.564 305.445 282.997C306.963 284.415 307.722 286.695 307.722 289.837V305.82H301.351V291.504C301.351 289.75 301.045 288.427 300.432 287.535C299.834 286.644 298.887 286.198 297.592 286.198C295.642 286.198 294.313 286.892 293.603 288.281C292.892 289.669 292.537 291.672 292.537 294.288V305.82H286.167V281.309H291.033L291.89 284.444H292.245C292.746 283.596 293.366 282.909 294.104 282.383C294.856 281.857 295.684 281.469 296.589 281.221C297.508 280.972 298.455 280.848 299.43 280.848ZM318.643 305.82L309.746 281.309H316.408L320.92 295.275C321.17 296.093 321.365 296.955 321.505 297.862C321.658 298.768 321.762 299.579 321.818 300.295H321.985C322.027 299.521 322.124 298.695 322.277 297.818C322.445 296.941 322.661 296.093 322.925 295.275L327.416 281.309H334.078L325.181 305.82H318.643ZM342.598 281.309V305.82H336.228V281.309H342.598ZM339.423 271.705C340.37 271.705 341.184 271.939 341.867 272.407C342.549 272.86 342.89 273.715 342.89 274.972C342.89 276.215 342.549 277.077 341.867 277.559C341.184 278.027 340.37 278.261 339.423 278.261C338.462 278.261 337.641 278.027 336.959 277.559C336.29 277.077 335.956 276.215 335.956 274.972C335.956 273.715 336.29 272.86 336.959 272.407C337.641 271.939 338.462 271.705 339.423 271.705ZM354.459 305.82H348.089V271.705H354.459V305.82ZM366.321 305.82H359.95V271.705H366.321V305.82ZM393.032 293.521C393.032 295.567 392.768 297.379 392.238 298.958C391.723 300.537 390.965 301.874 389.962 302.97C388.973 304.052 387.776 304.87 386.369 305.426C384.977 305.981 383.404 306.259 381.649 306.259C380.006 306.259 378.495 305.981 377.117 305.426C375.752 304.87 374.562 304.052 373.545 302.97C372.543 301.874 371.763 300.537 371.206 298.958C370.663 297.379 370.391 295.567 370.391 293.521C370.391 290.802 370.851 288.5 371.77 286.614C372.689 284.729 373.998 283.296 375.697 282.317C377.395 281.338 379.421 280.848 381.774 280.848C383.96 280.848 385.896 281.338 387.581 282.317C389.28 283.296 390.609 284.729 391.57 286.614C392.545 288.5 393.032 290.802 393.032 293.521ZM376.887 293.521C376.887 295.128 377.054 296.48 377.388 297.577C377.722 298.673 378.245 299.499 378.955 300.054C379.665 300.61 380.591 300.887 381.733 300.887C382.86 300.887 383.773 300.61 384.469 300.054C385.179 299.499 385.694 298.673 386.014 297.577C386.349 296.48 386.516 295.128 386.516 293.521C386.516 291.898 386.349 290.553 386.014 289.486C385.694 288.405 385.179 287.594 384.469 287.053C383.759 286.512 382.833 286.242 381.691 286.242C380.006 286.242 378.781 286.848 378.015 288.061C377.263 289.275 376.887 291.094 376.887 293.521ZM403.473 281.309V305.82H397.103V281.309H403.473ZM400.298 271.705C401.245 271.705 402.06 271.939 402.742 272.407C403.424 272.86 403.766 273.715 403.766 274.972C403.766 276.215 403.424 277.077 402.742 277.559C402.06 278.027 401.245 278.261 400.298 278.261C399.338 278.261 398.516 278.027 397.834 277.559C397.166 277.077 396.831 276.215 396.831 274.972C396.831 273.715 397.166 272.86 397.834 272.407C398.516 271.939 399.338 271.705 400.298 271.705ZM425.256 298.541C425.256 300.208 424.88 301.618 424.128 302.773C423.39 303.913 422.283 304.783 420.807 305.382C419.331 305.967 417.493 306.259 415.293 306.259C413.664 306.259 412.264 306.149 411.095 305.93C409.939 305.711 408.769 305.345 407.586 304.834V299.309C408.853 299.908 410.21 300.405 411.659 300.8C413.121 301.18 414.402 301.37 415.502 301.37C416.741 301.37 417.625 301.18 418.154 300.8C418.697 300.405 418.969 299.893 418.969 299.265C418.969 298.856 418.857 298.49 418.635 298.169C418.426 297.832 417.966 297.46 417.256 297.051C416.546 296.627 415.432 296.079 413.914 295.406C412.452 294.763 411.248 294.113 410.301 293.455C409.368 292.797 408.672 292.022 408.212 291.131C407.767 290.225 407.544 289.077 407.544 287.689C407.544 285.423 408.38 283.72 410.05 282.58C411.735 281.425 413.984 280.848 416.797 280.848C418.245 280.848 419.623 281.002 420.932 281.309C422.255 281.615 423.613 282.105 425.005 282.777L423.084 287.601C421.928 287.075 420.835 286.644 419.804 286.307C418.788 285.971 417.751 285.803 416.692 285.803C415.759 285.803 415.056 285.935 414.583 286.198C414.109 286.461 413.873 286.863 413.873 287.404C413.873 287.798 413.991 288.149 414.228 288.456C414.478 288.763 414.952 289.106 415.648 289.486C416.358 289.852 417.395 290.327 418.76 290.912C420.083 291.482 421.232 292.081 422.206 292.709C423.181 293.323 423.933 294.091 424.462 295.012C424.991 295.918 425.256 297.094 425.256 298.541ZM438.663 280.848C440.821 280.848 442.68 281.287 444.239 282.164C445.799 283.026 447.003 284.283 447.853 285.935C448.702 287.586 449.127 289.603 449.127 291.986V295.231H434.068C434.137 297.116 434.673 298.6 435.676 299.682C436.692 300.749 438.099 301.282 439.895 301.282C441.385 301.282 442.749 301.121 443.989 300.8C445.228 300.478 446.502 299.996 447.811 299.353V304.527C446.655 305.126 445.444 305.565 444.177 305.842C442.923 306.12 441.399 306.259 439.603 306.259C437.263 306.259 435.189 305.806 433.378 304.9C431.582 303.993 430.169 302.612 429.138 300.756C428.122 298.9 427.614 296.561 427.614 293.74C427.614 290.875 428.073 288.493 428.992 286.592C429.925 284.678 431.22 283.245 432.877 282.295C434.534 281.33 436.463 280.848 438.663 280.848ZM438.705 285.606C437.465 285.606 436.435 286.022 435.613 286.855C434.806 287.689 434.339 288.997 434.214 290.78H443.153C443.14 289.786 442.966 288.902 442.631 288.127C442.311 287.352 441.824 286.739 441.169 286.285C440.529 285.832 439.707 285.606 438.705 285.606Z" fill="black" stroke="#F9F9F9" stroke-width="0.451897" stroke-miterlimit="3.5" stroke-linecap="square" stroke-linejoin="round"/>
</g>
<defs>
<filter id="filter0_d_802_242" x="0.651398" y="0.826172" width="452.701" height="348.129" filterUnits="userSpaceOnUse" color-interpolation-filters="sRGB">
<feFlood flood-opacity="0" result="BackgroundImageFix"/>
<feColorMatrix in="SourceAlpha" type="matrix" values="0 0 0 0 0 0 0 0 0 0 0 0 0 0 0 0 0 0 127 0" result="hardAlpha"/>
<feOffset dy="4"/>
<feGaussianBlur stdDeviation="2"/>
<feComposite in2="hardAlpha" operator="out"/>
<feColorMatrix type="matrix" values="0 0 0 0 0 0 0 0 0 0 0 0 0 0 0 0 0 0 0.25 0"/>
<feBlend mode="normal" in2="BackgroundImageFix" result="effect1_dropShadow_802_242"/>
<feBlend mode="normal" in="SourceGraphic" in2="effect1_dropShadow_802_242" result="shape"/>
</filter>
</defs>
</svg>
