<svg width="131" height="131" viewBox="0 0 131 131" fill="none" xmlns="http://www.w3.org/2000/svg">
<mask id="path-1-inside-1_63_45" fill="white">
<path d="M131 65.5C131 101.675 101.675 131 65.5 131C29.3253 131 0 101.675 0 65.5C0 29.3253 29.3253 0 65.5 0C101.675 0 131 29.3253 131 65.5Z"/>
</mask>
<path d="M129 65.5C129 100.57 100.57 129 65.5 129V133C102.779 133 133 102.779 133 65.5H129ZM65.5 129C30.4299 129 2 100.57 2 65.5H-2C-2 102.779 28.2208 133 65.5 133V129ZM2 65.5C2 30.4299 30.4299 2 65.5 2V-2C28.2208 -2 -2 28.2208 -2 65.5H2ZM65.5 2C100.57 2 129 30.4299 129 65.5H133C133 28.2208 102.779 -2 65.5 -2V2Z" fill="#27213A" fill-opacity="0.8" mask="url(#path-1-inside-1_63_45)"/>
<g filter="url(#filter0_d_63_45)">
<path d="M86.9 97.0004C72.6105 96.9819 58.9116 91.2972 48.8074 81.193C38.7032 71.0888 33.0185 57.3899 33 43.1004C33 38.8304 34.6962 34.7353 37.7156 31.716C40.7349 28.6966 44.83 27.0004 49.1 27.0004C50.0042 26.9935 50.9069 27.0756 51.795 27.2454C52.6536 27.3725 53.4976 27.5835 54.315 27.8754C54.8899 28.0771 55.4021 28.4254 55.8011 28.8858C56.2001 29.3461 56.4721 29.9027 56.59 30.5004L61.385 51.5004C61.5142 52.0704 61.4987 52.6637 61.3397 53.2262C61.1808 53.7887 60.8835 54.3023 60.475 54.7204C60.02 55.2104 59.985 55.2454 55.68 57.4854C59.1275 65.0484 65.1762 71.122 72.725 74.6004C75 70.2604 75.035 70.2254 75.525 69.7704C75.9431 69.3619 76.4567 69.0646 77.0192 68.9057C77.5817 68.7467 78.175 68.7312 78.745 68.8604L99.745 73.6554C100.324 73.7896 100.858 74.0689 101.299 74.4669C101.74 74.8649 102.072 75.3685 102.265 75.9304C102.56 76.7612 102.783 77.616 102.93 78.4854C103.071 79.365 103.141 80.2545 103.14 81.1454C103.075 85.3971 101.332 89.4507 98.2889 92.4212C95.2463 95.3917 91.1521 97.0379 86.9 97.0004ZM49.1 34.0004C46.6894 34.0096 44.3801 34.9713 42.6755 36.6759C40.9709 38.3805 40.0092 40.6898 40 43.1004C40.0093 55.5362 44.9535 67.46 53.7469 76.2535C62.5404 85.0469 74.4642 89.9911 86.9 90.0004C89.3106 89.9912 91.6199 89.0295 93.3245 87.3249C95.0291 85.6203 95.9908 83.311 96 80.9004C96 80.5154 96 80.1304 96 79.7454L79.76 76.0004L78.745 77.9254C77.17 80.9704 76.015 83.1754 73.075 81.9854C67.2751 79.9094 62.0104 76.5675 57.6636 72.2025C53.3167 67.8375 49.9968 62.5589 47.945 56.7504C46.685 54.0204 49.065 52.7604 52.075 51.1854L54 50.2404L50.255 34.0004H49.1Z" fill="url(#paint0_linear_63_45)" fill-opacity="0.96"/>
</g>
<defs>
<filter id="filter0_d_63_45" x="29" y="27" width="78.1401" height="78.001" filterUnits="userSpaceOnUse" color-interpolation-filters="sRGB">
<feFlood flood-opacity="0" result="BackgroundImageFix"/>
<feColorMatrix in="SourceAlpha" type="matrix" values="0 0 0 0 0 0 0 0 0 0 0 0 0 0 0 0 0 0 127 0" result="hardAlpha"/>
<feOffset dy="4"/>
<feGaussianBlur stdDeviation="2"/>
<feComposite in2="hardAlpha" operator="out"/>
<feColorMatrix type="matrix" values="0 0 0 0 0 0 0 0 0 0 0 0 0 0 0 0 0 0 0.25 0"/>
<feBlend mode="normal" in2="BackgroundImageFix" result="effect1_dropShadow_63_45"/>
<feBlend mode="normal" in="SourceGraphic" in2="effect1_dropShadow_63_45" result="shape"/>
</filter>
<linearGradient id="paint0_linear_63_45" x1="68.07" y1="27" x2="68.07" y2="97.001" gradientUnits="userSpaceOnUse">
<stop stop-color="#27213A"/>
<stop offset="0.494792" stop-color="#27213A" stop-opacity="0.71"/>
<stop offset="1" stop-color="#27213A"/>
</linearGradient>
</defs>
</svg>
