<svg width="60" height="43" viewBox="0 0 60 43" fill="none" xmlns="http://www.w3.org/2000/svg">
<path d="M30.0505 10.4944C32.856 10.4944 35.1384 8.18236 35.1384 5.3405C35.1384 2.49853 32.8559 0.186523 30.0505 0.186523C27.2457 0.186523 24.9639 2.49864 24.9639 5.3405C24.9638 8.18236 27.2457 10.4944 30.0505 10.4944Z" fill="black"/>
<path d="M38.3335 13.5373C41.9777 10.159 42.3475 9.41695 42.5464 9.01808C43.4169 7.27191 43.8542 3.20913 43.9331 2.41244C44.0523 1.20939 43.1828 0.132263 41.9948 0.0113005C41.9231 0.00403587 41.8504 0.000345746 41.7787 0.000345746C40.662 0.000345746 39.736 0.849042 39.6242 1.97437C39.4412 3.81694 39.038 6.24829 38.7022 6.99516C38.2778 7.61347 36.2091 9.59637 34.0278 11.5684H26.5348C24.3535 9.59614 22.2846 7.61324 21.8602 6.99493C21.5244 6.24898 21.1213 3.81763 20.9384 1.97495C20.8269 0.849041 19.9016 0 18.7857 0C18.7134 0 18.6402 0.00369006 18.5679 0.01107C17.3798 0.131802 16.5102 1.20904 16.6293 2.41232C16.708 3.20913 17.1454 7.27226 18.0158 9.01797C18.2145 9.41648 18.5842 10.1584 22.2291 13.5373C23.2414 14.4758 24.2087 15.3429 24.8386 15.9025V40.0046C24.8386 41.2627 25.849 42.2862 27.0909 42.2862C28.3329 42.2862 29.3433 41.2627 29.3433 40.0046V27.3647H30.7667V40.0046C30.7667 41.2627 31.7771 42.2862 33.0191 42.2862C34.2611 42.2862 35.2715 41.2627 35.2715 40.0046L35.264 16.3098C35.7802 15.8546 37.023 14.7522 38.3335 13.5373Z" fill="black"/>
<path d="M19.1454 19.3056C18.9058 18.744 18.3649 18.3824 17.7627 18.368C17.7589 18.3679 12.3174 18.367 12.3083 18.367C11.8482 18.367 11.4218 18.5742 11.1347 18.9183L10.8457 18.2415C10.6293 17.7345 10.1369 17.407 9.59144 17.407C9.57881 17.407 4.69312 17.407 4.66523 17.407C3.99908 17.407 3.62742 17.7346 3.41114 18.2415L0.779105 24.4072C0.634197 24.7464 0.628505 25.1224 0.762713 25.4659C0.89715 25.8094 1.15555 26.0792 1.49022 26.2258C1.66279 26.3016 1.84492 26.34 2.03183 26.34C2.57709 26.34 3.06919 26.0124 3.28558 25.5055L3.83869 24.2097V36.1477C3.83869 36.9876 4.51349 37.671 5.34276 37.671C6.17192 37.671 6.84649 36.9876 6.84649 36.1477V28.3257H7.48076V36.1477C7.48076 36.9876 8.15545 37.671 8.9846 37.671C9.81376 37.671 10.4884 36.9876 10.4884 36.1477V27.8976C10.5978 27.7743 10.6896 27.6328 10.7567 27.4753L11.3711 26.0359C11.3737 26.0378 11.3762 26.0402 11.3787 26.0422V39.4444C11.3787 40.389 12.1375 41.1575 13.0702 41.1575C14.0027 41.1575 14.7614 40.389 14.7614 39.4444V30.5537H15.4746V39.4444C15.4746 40.389 16.2333 41.1575 17.166 41.1575C18.0985 41.1575 18.8572 40.389 18.8572 39.4444L18.8612 26.4798L19.2861 27.4754C19.5296 28.0455 20.0832 28.414 20.6964 28.414C20.9063 28.414 21.1112 28.3708 21.3054 28.2857C21.6819 28.121 21.9724 27.8175 22.1236 27.431C22.2748 27.0446 22.2682 26.6218 22.1054 26.2405L19.1454 19.3056Z" fill="black"/>
<path d="M15.2712 17.7967C17.4057 17.7967 19.1421 16.0376 19.1421 13.8754C19.1421 11.7133 17.4057 9.95435 15.2712 9.95435C13.1373 9.95435 11.4012 11.7133 11.4012 13.8754C11.4012 16.0376 13.1373 17.7967 15.2712 17.7967Z" fill="black"/>
<path d="M7.29957 16.8998C9.19739 16.8998 10.7413 15.3358 10.7413 13.4133C10.7413 11.491 9.19739 9.927 7.29957 9.927C5.40221 9.927 3.85864 11.4911 3.85864 13.4133C3.85876 15.3357 5.40221 16.8998 7.29957 16.8998Z" fill="black"/>
<path d="M41.4203 13.8754C41.4203 16.0376 43.1567 17.7967 45.2912 17.7967C47.4251 17.7967 49.1611 16.0376 49.1611 13.8754C49.1611 11.7133 47.4251 9.95435 45.2912 9.95435C43.1567 9.95435 41.4203 11.7133 41.4203 13.8754Z" fill="black"/>
<path d="M59.7834 24.4072L57.1513 18.2415C56.9351 17.7345 56.4428 17.407 55.8972 17.407C55.8693 17.407 50.9836 17.407 50.9709 17.407C50.4255 17.407 49.9333 17.7346 49.7167 18.2415L49.4277 18.9184C49.1406 18.5743 48.7142 18.3671 48.2541 18.3671C48.245 18.3671 42.8035 18.3681 42.7997 18.3681C42.1329 18.3681 41.6566 18.7441 41.417 19.3057L38.4568 26.2402C38.2939 26.6217 38.2874 27.0445 38.4386 27.4308C38.5896 27.8172 38.8802 28.1207 39.2567 28.2855C39.451 28.3706 39.6559 28.4137 39.8658 28.4137C40.479 28.4137 41.0326 28.0454 41.2761 27.4752L41.701 26.4796L41.705 39.4441C41.705 40.3888 42.4637 41.1573 43.3963 41.1573C44.3289 41.1573 45.0876 40.3888 45.0876 39.4441V30.5535H45.8009V39.4441C45.8009 40.3888 46.5596 41.1573 47.4921 41.1573C48.4247 41.1573 49.1835 40.3888 49.1835 39.4441V26.042C49.1861 26.0399 49.1886 26.0377 49.1912 26.0357L49.8055 27.4751C49.8728 27.6326 49.9644 27.7741 50.0738 27.8974V36.1475C50.0738 36.9874 50.7485 37.6707 51.5777 37.6707C52.4068 37.6707 53.0815 36.9874 53.0815 36.1475V28.3255H53.7158V36.1475C53.7158 36.9874 54.3904 37.6707 55.2195 37.6707C56.0488 37.6707 56.7236 36.9874 56.7236 36.1475V24.2095L57.2767 25.5052C57.493 26.0121 57.9852 26.3397 58.5304 26.3397C58.7174 26.3397 58.8995 26.3013 59.0718 26.2257C59.4066 26.0791 59.6651 25.8092 59.7996 25.4657C59.9339 25.1223 59.9282 24.7464 59.7834 24.4072Z" fill="black"/>
<path d="M53.2628 16.8998C55.1602 16.8998 56.7038 15.3358 56.7038 13.4133C56.7038 11.491 55.1602 9.927 53.2628 9.927C51.365 9.927 49.8211 11.4911 49.8211 13.4133C49.821 15.3357 51.365 16.8998 53.2628 16.8998Z" fill="black"/>
</svg>
