<svg width="61" height="60" viewBox="0 0 61 60" fill="none" xmlns="http://www.w3.org/2000/svg">
<g clip-path="url(#clip0_415_89)">
<path d="M28.8303 36.1084L26.0105 42.0638L25.4683 47.0659C29.0188 48.0019 32.1721 45.5877 32.6361 42.3537C33.0351 39.5814 31.3843 36.9936 28.8303 36.1084Z" fill="black"/>
<path d="M60.3085 7.13886C59.7017 5.44884 57.8382 4.57202 56.1482 5.17542L41.6813 10.3664C32.0324 10.3664 36.8019 10.5274 18.2423 9.52129L4.35898 6.88888C2.583 6.55864 0.891155 7.71277 0.557521 9.47916C0.222916 11.2434 1.38226 12.9461 3.14756 13.2805L17.2437 15.9532C17.3855 15.9809 17.5287 15.9977 17.6727 16.0063L30.4283 16.6989C29.5728 17.0101 25.5426 17.2326 24.5366 17.3109C23.0827 26.6823 23.6194 23.2173 22.1997 32.379L18.7984 39.5586C18.6691 39.8317 18.5865 40.126 18.5536 40.4269L17.2968 52.0116C17.123 53.6039 18.3652 55.0143 19.995 55.0143C21.3607 55.0143 22.5363 53.985 22.6866 52.5956L23.8937 41.4666L27.2822 34.3146C29.9846 34.7022 29.1945 34.5879 31.2004 34.8783C33.9608 36.6442 35.2104 39.6942 34.7825 42.6633C34.6374 43.6716 34.2943 44.6096 33.8094 45.4545L35.9471 53.0383C36.3581 54.4995 37.8744 55.3151 39.2924 54.9127C40.7325 54.5061 41.5722 53.0083 41.1656 51.5685L34.8099 29.0244L36.5561 16.8723H42.2467C42.6217 16.8723 42.9932 16.8068 43.3446 16.6819L58.3443 11.3002C60.0352 10.6925 60.9142 8.83107 60.3085 7.13886Z" fill="black"/>
</g>
<defs>
<clipPath id="clip0_415_89">
<rect width="60" height="60" fill="white" transform="translate(0.5)"/>
</clipPath>
</defs>
</svg>
