<svg width="52" height="51" viewBox="0 0 52 51" fill="none" xmlns="http://www.w3.org/2000/svg">
<g clip-path="url(#clip0_415_85)">
<path d="M26.0002 0C11.9394 0 0.5 11.4394 0.5 25.5002C0.5 39.561 11.9394 51.0004 26.0002 51.0004C40.061 51.0004 51.5004 39.561 51.5004 25.5002C51.5004 11.4394 40.0606 0 26.0002 0ZM26.0002 45.6296C14.9006 45.6296 5.87042 36.5998 5.87042 25.5002C5.87042 14.4006 14.9006 5.37042 26.0002 5.37042C37.0998 5.37042 46.1299 14.4006 46.1299 25.5002C46.1299 36.5998 37.0998 45.6296 26.0002 45.6296Z" fill="#1D1D1B"/>
<path d="M36.6333 25.7837H26.1792V16.7284C26.1792 15.2451 24.9773 14.0432 23.494 14.0432C22.0107 14.0432 20.8088 15.2451 20.8088 16.7284V28.4689C20.8088 29.9522 22.0107 31.1541 23.494 31.1541H36.6333C38.1166 31.1541 39.3185 29.9522 39.3185 28.4689C39.3185 26.9856 38.1162 25.7837 36.6333 25.7837Z" fill="#1D1D1B"/>
</g>
<defs>
<clipPath id="clip0_415_85">
<rect width="51" height="51" fill="white" transform="translate(0.5)"/>
</clipPath>
</defs>
</svg>
