<svg width="118" height="117" viewBox="0 0 118 117" fill="none" xmlns="http://www.w3.org/2000/svg">
<path fill-rule="evenodd" clip-rule="evenodd" d="M0.666748 23.75C0.666748 10.9554 11.1134 0.583374 24.0001 0.583374H94.0001C106.886 0.583374 117.333 10.9554 117.333 23.75V93.25C117.333 106.044 106.886 116.417 94.0001 116.417H24.0001C11.1134 116.417 0.666748 106.044 0.666748 93.25V23.75ZM24.0001 12.1667C17.5568 12.1667 12.3334 17.3527 12.3334 23.75V93.25C12.3334 99.6475 17.5568 104.833 24.0001 104.833H94.0001C100.444 104.833 105.667 99.6475 105.667 93.25V23.75C105.667 17.3527 100.444 12.1667 94.0001 12.1667H24.0001ZM59.0001 41.125C49.3348 41.125 41.5001 48.9038 41.5001 58.5C41.5001 68.0963 49.3348 75.875 59.0001 75.875C68.6653 75.875 76.5001 68.0963 76.5001 58.5C76.5001 48.9038 68.6653 41.125 59.0001 41.125ZM29.8334 58.5C29.8334 42.5068 42.8918 29.5417 59.0001 29.5417C75.1082 29.5417 88.1667 42.5068 88.1667 58.5C88.1667 74.4932 75.1082 87.4584 59.0001 87.4584C42.8918 87.4584 29.8334 74.4932 29.8334 58.5ZM91.0834 35.3334C95.9157 35.3334 99.8334 31.4439 99.8334 26.6459C99.8334 21.8479 95.9157 17.9584 91.0834 17.9584C86.2511 17.9584 82.3334 21.8479 82.3334 26.6459C82.3334 31.4439 86.2511 35.3334 91.0834 35.3334Z" fill="white"/>
</svg>
