<svg width="184" height="186" viewBox="0 0 184 186" fill="none" xmlns="http://www.w3.org/2000/svg">
<path d="M136.942 130.574C139.221 129.359 141.54 128.638 143.746 127.634C145.918 126.908 153.451 127.065 155.402 125.575C157.204 124.198 159.761 123.221 162.424 122.178C163.622 121.708 167.854 119.956 168.675 120.504C169.014 120.73 169.869 121.028 170.24 121.525C171.236 122.861 173.225 123.072 175.342 116.979C175.842 113.879 180.312 112.728 182.766 111.569C184.529 109.026 176.799 109.732 176.799 109.844C175.184 110.266 171.419 111.827 169.269 113.331C167.733 114.288 161.945 116.028 158.632 116.112C155.234 116.198 152.204 117.379 146.783 117.753C143.731 117.475 141.735 117.513 139.038 118.702C136.511 119.098 132.409 117.099 127.417 119.258C129.796 116.194 128.651 109.663 129.284 105.391C129.509 103.872 128.099 101.729 128.537 100.251C128.901 99.0204 130.072 97.2058 129.083 95.3627C127.833 93.0335 124.889 90.4938 123.045 89.1907C126.448 87.2843 130.401 80.2197 133.368 78.6756C140.368 74.5332 140.031 71.7506 143.712 67.3498C143.973 67.0386 145.37 65.312 145.523 65.6224C145.905 66.3991 146.838 66.4062 149.322 67.8171C150.788 69.1535 151.685 69.7418 152.01 69.3861C152.299 68.0044 150.405 66.7647 150.038 65.9328C150.7 65.219 151.645 64.4295 152.386 64.566C156.366 65.2991 156.822 65.8534 157.468 64.5363C157.243 64.2575 155.876 64.0468 154.49 63.521C153.986 63.3296 153.079 63.746 152.718 63.7402C153.529 64.0828 158.931 62.2918 157.698 60.704C157.447 60.3804 152.942 62.8723 151.947 62.567C156.062 64.3177 157.598 60.2745 156.734 59.98C156.136 59.7243 152.657 61.5775 150.709 61.386C151.076 60.0282 153.116 58.7348 151.64 57.4229C151.583 57.2283 150.63 59.4364 148.286 60.8947C147.156 61.5975 146.335 60.8512 145.283 61.1127C143.661 61.5561 142.688 62.4224 141.618 63.4089C137.764 66.4904 135.866 68.2708 132.213 70.3638C129.424 72.4113 123.951 78.7771 121.507 81.167C120.48 82.1719 118.539 81.4077 114.865 84.6772C114.829 84.7085 113.609 84.0521 113.731 83.8919C114.191 83.2863 115.364 82.1441 115.115 81.4183C114.299 79.0478 114.707 78.6912 114.366 77.3659C114.202 76.7245 113.943 76.5698 113.041 75.8934C112.752 75.677 112.655 74.7795 112.439 74.4629C111.587 73.2127 110.731 72.1051 109.491 71.1929C107.592 69.7948 102.344 70.8374 102.123 71.1851C101.047 70.1606 98.3017 69.2562 95.9746 71.5206C94.5152 72.9406 94.552 77.2444 96.709 78.9953C99.2821 80.6697 99.0122 81.1603 100.186 82.3915C102.901 84.7784 103.111 84.2979 104.414 85.8387C101.945 85.7014 97.0106 86.8125 94.6448 86.8325C89.8571 86.2495 84.2457 85.6911 79.9014 84.4767C78.1558 83.9887 75.8569 84.6551 73.7147 84.4813C71.5185 84.5683 66.4495 83.6169 63.6565 84.4421C61.4566 84.8174 60.4166 88.0252 59.4044 88.7167C59.0498 89.3783 53.8394 90.3704 54.6261 90.9593C55.1223 92.2183 57.8401 90.4821 57.6205 90.4381C57.4583 90.6882 53.7858 91.1992 52.0962 91.9654C51.0779 92.4272 54.6672 94.8661 58.1343 90.5734C56.2933 92.8637 52.7695 94.0903 52.3044 94.8169C53.4702 97.5458 60.5031 91.663 59.2394 91.5528C59.6048 91.1107 55.2144 96.3035 55.3113 96.5116C56.1798 98.3749 60.6159 92.3398 60.7615 91.9385C60.8604 91.6659 61.9126 91.6537 62.4211 91.4682C62.4211 95.1327 63.9456 95.9766 64.3342 95.3669C64.9346 94.4247 64.1024 93.4356 64.4825 92.0696C64.7977 90.9308 64.9977 89.8596 65.5915 88.7524C69.8424 90.8471 79.1814 91.9911 86.9482 92.9037C98.6744 96.7236 93.8087 95.3062 99.8302 96.1001C102.724 100.001 106.762 101.731 110.499 104.248C110.676 104.996 112.48 110.356 113.22 111.165C113.655 111.64 113.636 112.894 113.205 113.503C108.863 115.734 107.858 119.122 107.4 120.504C104.412 121.24 107.839 121.068 92.9667 123.591C90.008 122.138 84.8498 121.656 78.2382 124.473C77.5902 124.772 77.7802 124.421 73.5887 126.049C72.7474 126.234 71.8911 126.526 70.9053 126.579C68.2179 126.724 65.4561 125.747 63.596 126.843C61.7392 127.937 61.1373 128.352 60.2313 130.054C60.0397 130.002 58.8654 132.266 59.2188 133.479C59.4299 134.203 60.8665 134.219 61.978 134.281C64.1038 134.398 64.1965 133.349 66.921 132.785C68.6215 132.433 71.8617 131.744 73.9186 130.747C79.3245 130.049 84.631 131.012 88.4964 130.778C90.2121 130.862 91.0901 131.341 92.1168 131.511C96.4763 132.231 98.9647 132.272 100.302 132.396C102.948 132.641 102.985 132.783 105.449 133.173C107.698 133.529 113.178 133.138 113.992 133.292C119.204 137.891 129.975 134.814 136.938 130.575L136.942 130.574Z" fill="white"/>
<path d="M102.305 0.0194497C102.123 -0.0115944 101.936 -0.00541635 101.756 0.0375566C101.597 0.0124695 101.434 0.015579 101.276 0.0467987C101.276 0.0498889 101.276 0.0529505 101.276 0.0560408C101.108 0.128831 100.957 0.234446 100.83 0.366594C100.704 0.498741 100.605 0.654755 100.54 0.825585L75.8118 67.1543L2.28236 71.3159C2.00266 71.3317 1.73462 71.4327 1.51395 71.6053C1.29328 71.7779 1.13064 72.0138 1.04788 72.2815C0.965125 72.5491 0.966164 72.8357 1.0509 73.1027C1.13564 73.3697 1.29993 73.6044 1.52187 73.7754L58.8122 117.899L38.9612 183.694C38.88 183.962 38.8831 184.249 38.97 184.516C39.057 184.783 39.2235 185.017 39.4474 185.186C39.6713 185.355 39.9416 185.452 40.222 185.463C40.5025 185.474 40.7797 185.399 41.0161 185.248L102.785 145.687L164.306 182.924C164.548 183.07 164.828 183.138 165.109 183.119C165.391 183.1 165.659 182.995 165.879 182.818C166.098 182.641 166.258 182.4 166.336 182.13C166.415 181.859 166.407 181.57 166.316 181.303L149.7 133.091C149.641 132.92 149.549 132.763 149.43 132.627C149.31 132.492 149.165 132.382 149.003 132.303C148.841 132.224 148.664 132.178 148.484 132.167C148.304 132.156 148.123 132.181 147.953 132.24C147.782 132.298 147.625 132.39 147.489 132.51C147.354 132.63 147.244 132.775 147.165 132.937C147.086 133.099 147.04 133.275 147.029 133.456C147.018 133.636 147.043 133.816 147.102 133.987L162.487 178.615L103.473 142.896C103.253 142.763 103.001 142.694 102.745 142.697C102.488 142.7 102.238 142.775 102.022 142.914L42.664 180.929L61.7184 117.787C61.7988 117.521 61.7964 117.236 61.7112 116.971C61.626 116.706 61.4622 116.473 61.2416 116.303L6.12122 73.8508L76.862 69.8462C77.1284 69.8314 77.3846 69.7393 77.5995 69.5812C77.8144 69.4231 77.9787 69.2058 78.0721 68.9559L101.922 4.97811L128.536 66.3304C128.681 66.6639 128.953 66.9262 129.291 67.0597C129.629 67.1932 130.007 67.1871 130.341 67.0426C130.675 66.898 130.938 66.6267 131.072 66.2883C131.206 65.9499 131.2 65.5722 131.056 65.238L103.087 0.759193V0.756081C102.942 0.432586 102.678 0.177415 102.35 0.0438752C102.342 0.0386374 102.334 0.0334716 102.326 0.0284088C102.32 0.0252848 102.315 0.0222232 102.31 0.0191668L102.305 0.0194497Z" fill="white"/>
</svg>
